<?xml version="1.0" encoding="UTF-8"?>
<svg width="512px" height="512px" enable-background="new 0 0 52.966 52.966" version="1.1" viewBox="0 0 52.966 52.966" xml:space="preserve" xmlns="http://www.w3.org/2000/svg">
<g fill="#b8bbba">
	<path d="m28.983 20h-6v-6c0-0.552-0.448-1-1-1s-1 0.448-1 1v6h-6c-0.552 0-1 0.448-1 1s0.448 1 1 1h6v6c0 0.552 0.448 1 1 1s1-0.448 1-1v-6h6c0.552 0 1-0.448 1-1s-0.448-1-1-1z"/>
	<path d="m51.704 51.273l-14.859-15.453c3.79-3.801 6.138-9.041 6.138-14.82 0-11.58-9.42-21-21-21s-21 9.42-21 21 9.42 21 21 21c5.083 0 9.748-1.817 13.384-4.832l14.895 15.491c0.196 0.205 0.458 0.307 0.721 0.307 0.25 0 0.499-0.093 0.693-0.279 0.398-0.383 0.41-1.016 0.028-1.414zm-48.721-30.273c0-10.477 8.523-19 19-19s19 8.523 19 19-8.523 19-19 19-19-8.523-19-19z"/>
</g>
</svg>
