<?xml version="1.0" encoding="UTF-8"?>
<!DOCTYPE svg  PUBLIC '-//W3C//DTD SVG 1.1//EN'  'http://www.w3.org/Graphics/SVG/1.1/DTD/svg11.dtd'>
<svg enable-background="new 0 0 112.196 112.196" version="1.1" viewBox="0 0 112.196 112.196" xml:space="preserve" xmlns="http://www.w3.org/2000/svg">
		<circle cx="56.098" cy="56.097" r="56.098" fill="#fff"/>
		<path d="m19.531 58.608c-0.199 9.652 6.449 18.863 15.594 21.867 8.614 2.894 19.205 0.729 24.937-6.648 4.185-5.169 5.136-12.06 4.683-18.498-7.377-0.066-14.754-0.044-22.12-0.033-0.012 2.628 0 5.246 0.011 7.874 4.417 0.122 8.835 0.066 13.252 0.155-1.115 3.821-3.655 7.377-7.51 8.757-7.443 3.28-16.94-1.005-19.282-8.813-2.827-7.477 1.801-16.5 9.442-18.675 4.738-1.667 9.619 0.21 13.673 2.673 2.054-1.922 3.976-3.976 5.864-6.052-4.606-3.854-10.525-6.217-16.61-5.698-11.939 0.142-22.387 11.164-21.934 23.091z" fill="#e4b264"/>
		<path d="m79.102 48.668c-0.022 2.198-0.045 4.407-0.056 6.604-2.209 0.022-4.406 0.033-6.604 0.044v6.582c2.198 0.011 4.407 0.022 6.604 0.045 0.022 2.198 0.022 4.395 0.044 6.604 2.187 0 4.385-0.011 6.582 0 0.012-2.209 0.022-4.406 0.045-6.615 2.197-0.011 4.406-0.022 6.604-0.033v-6.582c-2.197-0.011-4.406-0.022-6.604-0.044-0.012-2.198-0.033-4.407-0.045-6.604-2.197-1e-3 -4.384-1e-3 -6.57-1e-3z" fill="#e4b264"/>
		<g fill="#e4b264">
			<path d="m19.531 58.608c-0.453-11.927 9.994-22.949 21.933-23.092 6.085-0.519 12.005 1.844 16.61 5.698-1.889 2.077-3.811 4.13-5.864 6.052-4.054-2.463-8.935-4.34-13.673-2.673-7.642 2.176-12.27 11.199-9.442 18.675 2.342 7.808 11.839 12.093 19.282 8.813 3.854-1.38 6.395-4.936 7.51-8.757-4.417-0.088-8.835-0.033-13.252-0.155-0.011-2.628-0.022-5.246-0.011-7.874 7.366-0.011 14.743-0.033 22.12 0.033 0.453 6.439-0.497 13.33-4.683 18.498-5.732 7.377-16.322 9.542-24.937 6.648-9.143-3.003-15.792-12.214-15.593-21.866z"/>
			<path d="m79.102 48.668h6.57c0.012 2.198 0.033 4.407 0.045 6.604 2.197 0.022 4.406 0.033 6.604 0.044v6.582c-2.197 0.011-4.406 0.022-6.604 0.033-0.022 2.209-0.033 4.406-0.045 6.615-2.197-0.011-4.396 0-6.582 0-0.021-2.209-0.021-4.406-0.044-6.604-2.197-0.023-4.406-0.033-6.604-0.045v-6.582c2.198-0.011 4.396-0.022 6.604-0.044 0.011-2.196 0.033-4.405 0.056-6.603z"/>
		</g>
</svg>
